<?xml version="1.0" encoding="utf-8"?>
<!-- Svg Vector Icons : http://www.onlinewebfonts.com/icon -->
<!DOCTYPE svg PUBLIC "-//W3C//DTD SVG 1.1//EN" "http://www.w3.org/Graphics/SVG/1.1/DTD/svg11.dtd">
<svg version="1.1" xmlns="http://www.w3.org/2000/svg" xmlns:xlink="http://www.w3.org/1999/xlink" x="0px" y="0px" viewBox="0 0 256 256" enable-background="new 0 0 256 256" xml:space="preserve">
<metadata> Svg Vector Icons : http://www.onlinewebfonts.com/icon </metadata>
<g><g><path fill="#cdcdcd" d="M218.1,97.7c-2-0.1-2.7-1-3.3-2.6c-4.2-10.9-10.4-20.8-18.6-29c-24.1-24.2-53.2-34.1-86.8-27.3c-32,6.5-54.8,25.3-67.9,55.4c-1,2.3-1.9,4-4.8,3.7c-1.1-0.1-2.2,0.3-3.3,0.6c-15,3.7-24.3,16.5-23.4,32.3c0.7,13.9,12.3,26,26.9,27.6c2.8,0.3,3.7,1.5,4.5,3.7c6.9,17,18.1,30.7,33.3,40.9c22.6,15.1,47.3,20,73.9,14.2c7.7-1.7,15-4.4,22.3-8.2c-2.4-2.3-4.7-4.3-6.7-6.6c-1.3-1.5-2.4-1.7-4.2-0.9c-14.6,6.3-29.8,8.6-45.3,5.6C81.7,200.4,59.4,181.4,49,149c-0.3-0.9-0.7-1.9-1-2.7c-1.5,0.2-2.8,0.4-4,0.6c-8.2,1.2-14.9-1.5-19.4-8.3c-4.5-6.8-4.5-14.2,0.1-21c4.5-6.7,11.1-9.3,19.2-8.2c1.4,0.2,2.8,0.4,4.3,0.6c3.3-12.3,8.8-23.2,17-32.8c7.3-8.6,22.2-19.7,29.5-21.5c-4,11.8,3.1,23.1,11.8,27.5c9.3,4.8,19.2,6.1,29.5,4.3c4.3-0.8,8.2-2.5,11.6-5.2c7.9-6.1,8.6-14.9,1.4-21.9c-7.4-7.2-16.2-8.3-25.8-5.3c-4.1,1.3-5.8,4.6-4.6,8.2c1.1,3.3,3.3,4.2,7.7,2.7c4.3-1.4,8.5-1.4,12.4,0.8c1.3,0.7,3.1,2.3,3.1,3.4c0,1.3-1.7,2.7-2.7,4c-0.3,0.4-1,0.5-1.5,0.7c-5.9,2.6-11.9,2.3-18,1.1c-4.2-0.8-8.2-2.5-11.6-5.2c-4.4-3.5-4.8-7.9-1.1-12.2c2.7-3.2,6-5.5,9.9-6.7c10-3.1,20.2-4,30.5-1.3c28.9,7.8,48.8,25.4,58.7,53.8c0.7,1.8,1.2,3.7,1.8,5.7c9.6-2.3,17.9-0.8,23.5,7.7c4.4,6.6,4.4,13.7,0.2,20.4c-5.6,8.8-14,10.3-23.7,8c-1.1,3.2-2.1,6.3-3.1,9.4c0.4,0.1,0.6,0.2,0.8,0.1c5.2-1,10.1-0.2,14.8,2c0.6,0.3,1.5,0.2,2.2,0c9.6-2.5,16.4-8.2,20.6-17.2C252,121.7,238.7,99,218.1,97.7z"/><path fill="#cdcdcd" d="M195.6,164.7c-1.4,0.6-2.6,0.6-4,0c-4.2-2-8.6-2.3-13-1.1c-13.6,3.8-19.5,18.4-12.3,30.7c6.2,10.5,15.8,17.1,26.3,22.6c0.5,0.3,1.4,0.2,2-0.1c9.2-4.7,17.5-10.5,23.8-18.9c3.3-4.4,5.4-9.3,5.4-14.1C223.7,168.5,208.9,158.9,195.6,164.7z M211.6,186.7c-1.9,3.5-4.4,6.8-7.2,9.6c-2.8,2.8-6.4,5-9.7,7.3c-0.5,0.4-1.6,0.5-2.1,0.2c-6.2-3.9-12-8.2-16.1-14.5c-1.8-2.8-2.6-5.7-1.5-8.9c2-5.8,9-7.9,13.8-4.1c1.6,1.3,3.1,2.7,4.6,4.2c1.4-1.3,2.8-2.6,4.3-3.9c3.3-2.8,7.5-2.9,11-0.4C212.2,178.6,213.7,183,211.6,186.7z"/><path fill="#cdcdcd" d="M106,159.7c2.5,10.9,12.6,18.6,23,17.8c12.1-1,20.8-9.8,21.4-21.7c0.1-3.3-2.1-6-5.2-6.3c-3-0.3-5.6,1.8-6.1,5.1c-0.1,0.9-0.2,1.7-0.4,2.6c-1,5.3-5.7,9.1-11,9c-5.4-0.1-9.9-4.2-10.7-9.6c-0.2-1.3-0.3-2.6-0.8-3.7c-1-2.5-3.9-3.8-6.5-3.1c-2.9,0.7-4.4,3.2-4.2,6.8C105.8,157.5,105.8,158.6,106,159.7z"/><path fill="#cdcdcd" d="M159.4,130.7c0-4.5-3.1-7.5-7.4-7.5c-4.4,0-7.3,3.2-7.2,7.7c0.1,4.4,3.1,7.4,7.3,7.5C156.3,138.3,159.5,135.1,159.4,130.7z"/><path fill="#cdcdcd" d="M111.1,131.6c0-4.5-3-7.5-7.4-7.5c-4.4,0-7.2,3.2-7.2,7.7c0.1,4.4,3,7.4,7.2,7.4C108.1,139.3,111.1,136.1,111.1,131.6z"/></g></g>
</svg>