<?xml version="1.0" standalone="no"?><!DOCTYPE svg PUBLIC "-//W3C//DTD SVG 1.1//EN" "http://www.w3.org/Graphics/SVG/1.1/DTD/svg11.dtd"><svg t="1769065037774" class="icon" viewBox="0 0 1024 1024" version="1.1" xmlns="http://www.w3.org/2000/svg" p-id="13974" xmlns:xlink="http://www.w3.org/1999/xlink" width="24" height="24"><path d="M921.6 880.64 921.6 921.6 901.12 921.6 901.12 1003.52 860.16 1003.52 860.16 921.6 163.84 921.6 163.84 1003.52 122.88 1003.52 122.88 921.6 102.4 921.6 102.4 880.64 122.88 880.64 122.88 573.44 102.4 573.44 102.4 532.48 122.88 532.48C122.88 283.648 324.608 81.92 573.44 81.92 573.78816 81.92 574.11584 81.96096 574.464 81.96096 579.46112 47.24736 609.03424 20.48 645.12 20.48 684.70784 20.48 716.8 52.57216 716.8 92.16 716.8 128.24576 690.05312 157.7984 655.36 162.816L655.36 222.35136C670.8224 213.4016 688.14848 207.31904 706.90816 205.80352 687.80032 227.45088 675.84 255.56992 675.84 286.72 675.84 354.59072 730.84928 409.6 798.72 409.6 802.0992 409.6 805.29408 408.86272 808.61184 408.59648 786.10432 434.13504 753.52064 450.56 716.8 450.56 648.92928 450.56 593.92 395.55072 593.92 327.68 593.92 291.51232 609.95584 259.54304 634.88 237.21984L634.88 162.34496C611.06176 158.8224 590.9504 144.1792 580.79232 123.24864 578.33472 123.1872 575.91808 122.88 573.44 122.88 347.21792 122.88 163.84 306.25792 163.84 532.48L921.6 532.48 921.6 573.44 901.12 573.44 901.12 880.64 921.6 880.64ZM245.76 573.44 163.84 573.44 163.84 880.64 245.76 880.64 245.76 573.44ZM368.64 573.44 286.72 573.44 286.72 880.64 368.64 880.64 368.64 573.44ZM491.52 573.44 409.6 573.44 409.6 880.64 491.52 880.64 491.52 573.44ZM614.4 573.44 532.48 573.44 532.48 880.64 614.4 880.64 614.4 573.44ZM737.28 573.44 655.36 573.44 655.36 880.64 737.28 880.64 737.28 573.44ZM860.16 573.44 778.24 573.44 778.24 880.64 860.16 880.64 860.16 573.44Z" p-id="13975" fill="#cccccc"></path></svg>