<?xml version="1.0" standalone="no"?><!DOCTYPE svg PUBLIC "-//W3C//DTD SVG 1.1//EN" "http://www.w3.org/Graphics/SVG/1.1/DTD/svg11.dtd"><svg t="1756003053308" class="icon" viewBox="0 0 1024 1024" version="1.1" xmlns="http://www.w3.org/2000/svg" p-id="3902" xmlns:xlink="http://www.w3.org/1999/xlink" width="64" height="64"><path d="M967.39328 917.05344c0 41.00096-198.2848 74.24-442.88 74.24s-442.88-33.23904-442.88-74.24 198.2848-74.24 442.88-74.24 442.88 33.23904 442.88 74.24z" fill="#C8AE9E" p-id="3903"></path><path d="M513.70496 198.99392c54.21568-37.56544 154.8032-62.8736 232.23808 16.3968l1.85344 1.92256 0.34816 0.36608 0.32 0.39424c3.74272 4.61312 10.54976 9.02656 21.19168 14.07488 5.1584 2.44736 10.78528 4.85376 16.9216 7.4752 6.06208 2.58816 12.57216 5.36576 19.12832 8.42496 26.08384 12.1728 55.49568 29.9136 69.85728 65.13152l0.25344 0.66304c2.432 6.83008-0.832 12.79744-1.80992 14.56896-1.42848 2.59328-3.55072 5.504-5.22752 7.85152-3.70688 5.184-8.2304 11.61984-12.224 20.50048-7.82592 17.3952-14.3616 45.9264-3.4176 92.736l1.11616 4.82816c11.85024 51.90656 35.68896 176.37376 11.2128 280.46336l-0.60416 2.5344c-12.672 52.04224-37.0304 102.99904-75.54304 140.04992-38.22336 36.76928-89.83808 59.26656-155.72224 55.86176l-3.1488-0.1792c-79.99744-5.09952-124.89216-33.8816-143.36256-79.2064-17.69216-43.42016-9.1264-97.98144 6.44096-150.18752l1.33888-4.5568c13.68064-47.10144 21.90592-94.72 24.8192-136.11264 2.94144-41.80736 0.3584-75.8784-6.53056-96.59136l-0.68352-1.96352c-7.0912-19.6352-23.36512-37.87776-40.45568-55.81312-8.18944-8.59392-16.73472-17.31328-23.40864-25.43872-6.26176-7.62112-12.4032-16.46336-14.5408-25.94304l-0.19456-0.91648c-8.89856-45.17376 14.96064-110.69184 77.26848-155.52l2.56512-1.81504z m215.29344 35.70688c-65.44384-68.46464-151.76192-48.59136-200.60672-14.73792l-2.30144 1.62304c-55.96416 40.2688-73.67168 96.44032-67.10016 129.79456l0.1408 0.61184c0.82688 3.16928 3.52768 7.96928 9.25696 14.94528 5.9008 7.18336 13.50656 14.94528 22.16192 24.03072 16.59904 17.4208 36.80768 39.3216 46.00064 64.77824l0.84736 2.43968c8.54784 25.6128 10.83648 63.77984 7.82336 106.60608-3.04384 43.24352-11.5968 92.6592-25.77152 141.46816l-1.39008 4.72064c-15.37536 51.56864-21.38624 98.55744-7.26784 133.2096 13.34528 32.74752 46.65856 58.56 121.28512 63.31904l2.80832 0.16128c58.7136 3.04384 103.47008-16.79104 136.68608-48.74496 34.05824-32.76544 56.5376-78.86592 68.41856-127.65696l0.56832-2.3808c22.99648-97.85088 0.53248-217.14176-11.23584-268.74624l-1.1136-4.8128c-12.096-51.75296-5.34272-86.07744 4.99968-109.06624 5.08928-11.3152 10.86464-19.45856 14.7456-24.88832 0.82432-1.15712 1.47712-2.07872 1.99936-2.82624-11.15392-23.23712-31.87712-36.47744-55.07328-47.30112-6.11072-2.85184-12.2368-5.4656-18.35776-8.08192-6.0416-2.58048-12.14464-5.18656-17.83808-7.8848-10.8672-5.15584-22.0672-11.45344-29.68576-20.57984z" fill="#000000" p-id="3904"></path><path d="M466.91328 350.01344c-7.18848-39.22944 4.93312-95.52896 60.99968-138.26048 48.56064-37.0176 139.41504-61.90592 207.93344 14.22592 21.4144 27.93728 94.71488 30.38976 118.10048 91.45088 3.32288 8.67584-43.69664 35.98336-22.22592 134.44864 10.67776 48.96512 34.65728 177.01632 10.20416 281.792-23.54944 100.89472-86.784 184.69376-207.33184 176.98304-146.20672-9.35424-150.016-98.97216-120.41472-202.83136 28.21632-98.99008 38.72256-202.99264 23.13472-249.00864-15.25504-45.03296-65.64864-82.86208-70.4-108.8z" fill="#D7AA7A" p-id="3905"></path><path d="M488.67328 370.49344c-6.17728-36.5568-17.32096-81.53344 32.02304-121.56672 42.7392-34.67264 122.55488-58.18112 182.4384 12.5824 18.69824 25.97888 83.0208 28.02688 103.34464 84.88448 2.88768 8.08192-38.46656 33.69728-19.94752 125.44256 9.20832 45.62176 29.83168 164.94336 8.0256 262.72256-20.99712 94.1568-74.6752 170.08896-180.44416 163.29472-128.2816-8.24064-123.94752-97.28-102.4-176.64 25.08544-92.39808 43.52-172.8 28.16256-249.37728-8.64768-43.1232-47.1168-77.1712-51.20256-101.34272z" fill="#FCD4A3" p-id="3906"></path><path d="M377.84064 440.40192c-43.23584-12.53888-114.68288-7.296-148.0064 61.6704l-0.79104 1.66656-0.21504 0.45824-0.1792 0.4736c-0.27904 0.75008-1.61792 2.99008-5.44256 6.98112-3.56352 3.71968-8.28416 7.95392-13.89312 12.77696-10.8544 9.3312-24.99072 20.77184-36.4288 32.45056-11.03872 11.26656-22.3616 25.41056-24.35072 40.99328-1.0752 8.41984 0.6144 16.896 5.74976 24.7168 4.94592 7.53408 12.61824 13.76 22.4128 19.0208l0.6656 0.36096 0.70912 0.27648c13.79072 5.41696 22.77376 16.67328 28.56192 29.28128 5.8112 12.66688 7.7824 25.45408 8.14336 31.27552l0.36352 5.60896c3.77856 55.76192 12.08576 102.16704 36.59776 159.40864l2.50368 5.76256c8.48384 19.21536 27.70688 55.50336 61.64224 76.55168 17.28 10.71872 38.30272 17.43104 63.15264 15.93088 24.71424-1.48992 52.31104-11.04384 83.03104-31.31648l0.30208-0.19968 0.28928-0.21504c30.4768-22.68416 45.28384-56.07424 49.88928-88.54784 4.5824-32.27904-0.68864-65.01888-11.9552-88.11008l-13.7216-28.08064c-29.45024-60.45696-45.52192-96.66048-54.16192-160.1408l-0.46336-3.48928c-1.06496-8.2176 0.0896-13.57056 1.86112-17.40544 1.83552-3.97056 4.8256-7.38048 9.12128-10.9824 2.16064-1.81504 4.51072-3.56608 7.13728-5.4784 2.5216-1.83552 5.43744-3.91936 8.18432-6.0672 5.49376-4.3008 11.6864-9.87648 15.8336-17.71008l0.24576-0.46336 0.20736-0.4864c2.43456-5.6832 3.0848-11.70176 1.5616-17.63328-1.472-5.73184-4.70784-10.36032-8.31744-13.99552-6.94784-6.99392-17.11616-12.11648-26.9952-16.0768-19.55328-7.83616-46.28224-14.03904-61.19168-18.65216l-2.05312-0.6144zM252.34176 514.3552c25.52576-54.3104 81.41824-60.096 118.24128-49.40544l1.74336 0.52224c18.19392 5.632 40.70656 10.53184 59.23584 17.96096 9.16224 3.67104 15.24736 7.22176 18.35264 10.35008 1.41312 1.42336 1.65632 2.21696 1.68448 2.32704a0.39424 0.39424 0 0 1 0.0128 0.16896 2.688 2.688 0 0 1-0.14336 0.5888c-1.6512 2.85696-4.38272 5.62944-8.69376 9.00352-2.28864 1.792-4.68224 3.49952-7.47264 5.5296-2.68032 1.95328-5.64736 4.14208-8.53504 6.5664-5.80864 4.8768-11.87072 11.14624-15.8976 19.85536-4.08832 8.84736-5.60384 19.1744-4.01152 31.43936l0.49408 3.712c9.20576 67.5328 26.79552 106.8928 56.49408 167.8208l13.73696 28.1088c8.79616 18.03264 13.55776 45.53728 9.62048 73.29024-3.89376 27.44576-16.06912 53.7728-39.53408 71.38048-27.84256 18.32192-51.072 25.78944-70.17728 26.94144-19.0336 1.14688-34.85696-3.91168-48.1152-12.1344-27.13856-16.83456-43.75552-47.10656-51.71712-65.13664l-2.36544-5.43488c-23.1296-54.00064-30.98368-97.47968-34.61632-151.1808l-0.35072-5.40672c-0.50688-8.22272-3.0208-24.23296-10.42944-40.37376-7.33696-15.9872-20.07552-33.29024-41.59232-42.06848-7.15264-3.91424-10.81856-7.49056-12.6208-10.23744-1.65888-2.52672-2.09152-4.83328-1.75872-7.42656 0.82432-6.44864 6.42048-15.27296 17.24672-26.32192 10.42176-10.63936 23.0912-20.86144 34.83136-30.95296 5.68576-4.8896 11.20512-9.80736 15.68256-14.47936 4.04736-4.22144 8.35328-9.36192 10.65472-15.00672z" fill="#000000" p-id="3907"></path><path d="M478.43328 766.01344c-38.848-79.62624-59.072-122.26048-69.12-199.68-5.31712-40.96 38.39744-52.48 49.92-74.24 11.51744-26.88-50.01728-28.60544-83.1232-38.85056-40.07936-12.4032-105.78432-7.61088-135.47008 55.91552-9.99168 26.69312-120.60672 77.65504-51.48672 114.77504 35.84 14.08 47.7696 56.3584 48.64 70.4 3.65568 59.10016 8.01792 110.12608 34.56 170.24 14.6944 33.28 59.25376 124.8256 176.64 47.36 54.13376-40.2944 49.50272-104.79616 29.44-145.92z" fill="#D7AA7A" p-id="3908"></path><path d="M445.15584 773.69344c-33.00608-67.65056-56.7424-124.94336-65.28-190.72-4.5184-34.80064 11.51744-55.86688 25.59744-69.12 21.76256-20.48-9.67936-16.08448-37.80352-24.78848-34.05312-10.53952-89.87648-6.46656-115.0976 47.50592-8.49152 22.67904-107.76576 67.74784-48.05632 97.60256 28.16 14.08 33.8176 53.3504 34.55744 65.28 3.10528 50.21184 16.32768 120.32 33.28256 158.72 13.96992 31.64416 57.70752 123.41504 157.44 57.6 45.99296-34.23488 32.40448-107.14112 15.36-142.08z" fill="#FCD4A3" p-id="3909"></path><path d="M648.49664 33.40288c59.55072 0.95488 127.8592 39.26784 177.03168 89.0496 25.20064 25.51552 46.1184 54.75328 58.61632 84.8512 12.49024 30.08256 16.87552 61.8496 7.55456 91.54048-5.02528 16.01024-16.28672 30.59456-30.79936 43.46112-14.60736 12.95104-33.23136 24.80896-54.25664 35.23328-42.048 20.84864-95.01952 36.61824-148.18048 43.75808-53.0432 7.12192-107.39968 5.80352-151.84384-8.54784-44.01664-14.21568-79.59808-41.792-92.40832-87.44192l-0.59392-2.19136c-4.99456-19.11296-0.85504-46.85824 8.40704-75.82976 9.47456-29.65248 25.07776-62.93248 45.57312-94.18752 40.47616-61.7216 102.76096-119.4112 178.07104-119.71328l2.8288 0.01792z m-0.34304 25.59744l-2.38336-0.01536c-62.06464 0.24832-117.696 48.576-156.76416 108.14976-19.2768 29.39392-33.856 60.5824-42.60096 87.94368-8.96 28.03968-11.08224 49.85088-8.02048 61.56544l0.45312 1.67424c9.80224 34.99008 36.98944 57.58208 75.65056 70.0672 39.54944 12.77184 89.73568 14.36672 140.56704 7.5392 50.7136-6.8096 100.94848-21.85216 140.21632-41.32096 19.63008-9.73312 36.19328-20.41344 48.64768-31.45472 12.54656-11.12576 20.22144-21.99296 23.35488-31.97184 6.99904-22.28736 4.18304-47.67232-6.77376-74.0608-10.94912-26.368-29.72416-52.92288-53.184-76.672-46.63296-47.21408-108.89472-80.60672-159.16288-81.44384z" fill="#000000" p-id="3910"></path><path d="M867.88864 291.68896c30.94016-98.54976-116.49792-236.3008-221.6064-235.8784-130.2272 0.51968-223.5648 201.00608-208.28672 259.45344 41.088 157.18912 398.95552 74.97472 429.89312-23.57504z" fill="#8A5F4E" p-id="3911"></path><path d="M817.2544 288.68864c27.59936-97.37728-94.44608-222.50496-186.50112-221.5552-114.05824 1.1776-206.36672 186.89792-193.28512 244.48 32.86528 144.64 352.18688 74.45248 379.78624-22.9248z" fill="#A07B65" p-id="3912"></path><path d="M221.71904 380.37248c-37.43744 21.9008-68.7616 71.21664-83.87328 119.46496-7.7696 24.79872-11.64032 50.45504-9.46176 73.37472 2.10688 22.19264 10.06336 43.0464 27.0336 57.05728l1.67168 1.33632c7.33184 5.66528 14.99904 9.3696 23.08608 10.83904 8.13312 1.47712 15.91552 0.5504 23.2192-1.91488 13.99552-4.72064 26.8672-15.3728 38.82496-26.4576 24.83968-23.03232 49.54368-51.22816 84.02176-67.22816l1.6512-0.75264c45.91872-20.60032 78.06208-22.21312 100.20864-22.71488 5.52192-0.12544 11.01824-0.18176 15.78496-0.46848 4.78208-0.28672 9.78688-0.83968 14.46144-2.2656 4.88192-1.48992 9.6768-4.00896 13.65504-8.33024 3.66848-3.98336 5.97504-8.77568 7.43424-13.95456l0.27904-1.04192c5.34016-20.74112-7.48288-41.38496-23.48032-57.57184-16.8192-17.01632-40.96768-33.13408-67.584-45.84192-26.6752-12.736-56.57344-22.40256-85.21728-26.00192-28.43904-3.5712-57.05984-1.32608-79.92832 11.45088l-1.78688 1.02144z m12.85376 22.13888l1.41824-0.81152c16.22784-9.06496 38.61504-11.61728 64.25088-8.3968 25.42592 3.19232 52.67456 11.90656 77.37856 23.70048 24.76032 11.82208 46.2208 26.3808 60.40832 40.73728 15.01184 15.18592 18.59072 26.61376 16.896 33.1904l-0.26624 0.94976c-0.62208 2.03008-1.23648 2.816-1.48992 3.09248-0.22528 0.2432-0.71168 0.70144-2.28864 1.18016-1.7792 0.54272-4.40576 0.95232-8.52736 1.20064-4.1344 0.24832-8.81152 0.2944-14.82752 0.43008-24.01792 0.54272-59.91936 2.432-110.11328 24.95232l-1.88416 0.86016c-39.40608 18.29376-68.44416 51.05408-90.71616 71.70304-11.97056 11.10272-21.31968 18.18112-29.60128 20.97664-3.83232 1.2928-7.20384 1.57184-10.46016 0.98048-3.29984-0.59904-7.2576-2.23744-12.0064-5.90848l-0.99072-0.79104c-10.07616-8.31488-16.17408-21.76-17.88416-39.76704-1.7664-18.57792 1.3312-40.70656 8.40704-63.30112 14.11328-45.05856 42.55488-87.5392 72.29696-104.97792z" fill="#000000" p-id="3913"></path><path d="M174.48192 610.31168c-52.6848-40.71168-3.33568-176.33024 59.328-211.33824 71.552-39.97184 230.27456 44.80256 217.3952 94.79936-4.84096 18.80064-49.94304-9.1392-137.89184 30.32064-69.27872 31.08096-94.60736 120.38912-138.8288 86.21824z" fill="#8A5F4E" p-id="3914"></path><path d="M171.3408 613.79072c-45.25312-33.90976-5.13536-165.04064 51.09248-195.93728 64.19968-35.27936 187.33312 12.8 180.48256 49.92256-3.77856 20.47744-28.02944 14.85056-107.52256 48.63744-62.6176 26.61376-88.32 124.16-124.05504 97.37728z" fill="#A07B65" p-id="3915"></path></svg>