<?xml version="1.0" standalone="no"?><!DOCTYPE svg PUBLIC "-//W3C//DTD SVG 1.1//EN" "http://www.w3.org/Graphics/SVG/1.1/DTD/svg11.dtd"><svg t="1754918081905" class="icon" viewBox="0 0 1024 1024" version="1.1" xmlns="http://www.w3.org/2000/svg" p-id="1925" xmlns:xlink="http://www.w3.org/1999/xlink" width="32" height="32"><path d="M960 919.04c0 41.00096-198.2848 74.24-442.88 74.24S74.24 960.04096 74.24 919.04s198.2848-74.24 442.88-74.24 442.88 33.23904 442.88 74.24z" fill="#C8C8C8" p-id="1926"></path><path d="M259.83744 367.36c-10.752-45.12768 120.02816-51.97824 237.03552-61.93152 129.89696-11.04896 270.07488-45.99552 276.24704-0.00256l0.1024 0.86528c3.84512 36.48-59.33312 67.94752-103.78496 128.9088l-0.97792 1.39776c-20.1984 30.19776-20.2624 110.16704-32.0768 130.304l-0.57088 0.94976c-11.8016 19.20768-34.83136 29.64736-89.088 33.3312l-5.44 0.34304c-36.66176 2.10944-66.40384-4.75136-92.1984-23.22944l-2.4832-1.82528c-30.9248-23.28064-46.7456-76.84352-78.976-111.47776L366.08 463.36c-15.27552-15.86176-97.58208-64.35328-106.05568-95.27296l-0.18688-0.72704z m239.20384-36.42368c-59.4944 5.06112-119.552 9.1392-163.8912 17.43104-22.47168 4.20096-37.93664 9.00352-46.62016 13.93664-1.0112 0.57344-1.8176 1.088-2.4576 1.53088 0.23296 0.36608 0.50176 0.77312 0.81664 1.22368 1.90976 2.74176 4.76928 6.1184 8.68352 10.07616 7.86432 7.94624 18.37824 16.64256 29.9264 25.47712 11.52 8.81152 23.17568 17.09312 33.55648 24.62976 9.33376 6.77376 19.67104 14.34368 25.46432 20.35968l1.79456 1.89696c18.40128 19.76832 31.82848 44.41088 42.93376 63.77472 12.57472 21.92896 21.96992 36.63104 32.75008 44.74624l1.92512 1.41568c20.00896 14.35392 43.59168 20.39296 75.88864 18.5344l5.38112-0.34048c52.4288-3.59168 63.84384-13.27872 68.65152-20.928l0.43776-0.72192c0.01792-0.05888 0.5888-1.23648 1.43616-4.28544 0.88832-3.18976 1.78944-7.3344 2.72896-12.49792 1.92768-10.59584 3.55584-22.73792 5.7216-36.81792 2.07872-13.50656 4.5824-28.22912 8.08448-41.6768 3.37152-12.94848 8.30208-27.33824 16.50176-38.58432l2.27584-3.07968c23.69024-31.5904 52.15744-56.10496 71.14752-74.38592 10.38592-9.99936 17.4592-17.6128 21.74464-24.11776 2.17856-3.30752 3.1488-5.6064 3.56864-7.1552-1.38752-0.5248-3.51232-1.16736-6.60992-1.75104-12.37504-2.3296-31.54944-2.24512-57.34656-0.07936-25.3056 2.12224-54.52288 5.99296-86.25408 10.13504-29.4912 3.84768-60.9152 7.89504-92.02432 10.70848l-6.21568 0.54528z" fill="#000000" p-id="1927"></path><path d="M720.25856 312.51968c4.94336 36.84864-44.17536 66.35776-77.51424 126.26176-15.75936 28.3136-13.27872 110.20288-22.0928 130.22976-8.81664 20.02688-27.31776 30.05696-73.54624 31.73376-29.60384 1.07264-53.70112-7.16288-74.94656-27.70176-25.31328-24.46848-39.31136-79.616-66.40128-115.00544-12.53376-16.37376-79.40352-67.73248-86.0672-98.70592-9.73568-45.26592 92.58496-48.29952 184.01536-54.81984 101.50912-7.24224 210.3808-37.98784 216.55296 8.00768z" fill="#F8EEE7" p-id="1928"></path><path d="M775.87456 242.9696c-16.18688-114.2272-154.38336-200.512-303.3856-181.0432l-3.52 0.47872c-150.34112 21.30432-253.8368 142.592-237.52192 257.71776l0.2944 1.89696c13.18912 78.55616 145.5232 92.36736 291.9168 72.6272l7.03744-0.97024c149.16608-21.14048 256.58624-57.70752 245.46304-148.54912l-0.28416-2.15552z m25.69728-0.91136c3.36896 27.57632-2.0224 52.51328-15.7056 74.14272-13.77792 21.77792-34.79808 38.38464-59.27936 51.39712-48.39168 25.72032-116.84096 40.73216-192.29952 51.42528-76.42368 10.8288-151.616 13.2096-210.26048 1.536-56.08704-11.16416-108.06272-38.00832-117.50912-94.14912l-0.41728-2.69568c-18.8672-133.1456 99.328-263.98976 259.2768-286.656 80.9344-11.4688 159.488 6.05952 220.43648 42.496 60.7616 36.32384 105.90464 92.7744 115.40736 159.82592l0.35072 2.67776z" fill="#000000" p-id="1929"></path><path d="M775.87456 242.97216c13.09696 92.42112-94.83776 129.39776-245.17888 150.70208-150.33856 21.30432-287.70048 7.95392-299.24864-73.55136-16.31488-115.12832 87.1808-236.41344 237.51936-257.71776 150.34112-21.30432 290.59328 65.43872 306.90816 180.56704z" fill="#E3C5AB" p-id="1930"></path><path d="M719.37024 249.59488c12.10112 85.3888-84.36224 119.08864-218.84416 138.14528-134.48192 19.0592-257.4848 6.1696-268.16-69.1328-15.07072-106.368 77.07392-217.9328 211.55584-236.992 134.48192-19.05664 260.37504 61.61152 275.44832 167.97952z" fill="#F6E1D0" p-id="1931"></path><path d="M482.67776 507.13856c-75.05152-84.40832-234.49088-79.96672-345.48736 16.58368l-2.6112 2.29888C23.48032 624.79616 4.72832 779.76064 80.36864 864.83456l1.27232 1.39264c54.02368 57.72032 190.29504 16.84992 300.08064-79.50592l2.60864-2.30144c110.22592-98.00448 158.31296-207.26528 99.74784-275.6736l-1.40288-1.60768z m19.13088-17.0112c38.56896 43.3792 40.59392 98.9312 20.07808 153.26464-20.27264 53.6832-63.22688 109.1968-120.54272 160.15872-57.8944 51.47392-123.88608 88.86016-183.76192 105.37984-57.2288 15.78752-117.58336 14.39744-154.59584-25.16992l-1.74592-1.91488c-87.7312-98.67264-62.02112-269.73184 56.32768-374.95552 59.89888-53.25824 133.5808-81.54112 203.14624-84.8256 69.34784-3.27424 136.90624 18.36288 181.0944 68.06272z" fill="#000000" p-id="1932"></path><path d="M482.67776 507.13856c60.72064 68.29312 12.7488 178.50368-98.34496 277.27872-111.09376 98.7776-250.41152 140.6464-303.95904 80.41728-75.64288-85.07392-56.89088-240.0384 54.20288-338.81344 111.09376-98.77504 272.4608-103.95648 348.10112-18.88256z" fill="#E3C5AB" p-id="1933"></path><path d="M453.31968 531.1744c58.22976 65.48992 13.76512 169.8048-90.67008 262.66112-104.43264 92.85376-233.2544 128.61952-287.51872 73.59232C2.55488 793.83552 33.28 618.24 123.36128 545.85856c104.43264-92.85376 257.42336-96.26624 329.9584-14.68416z" fill="#F6E1D0" p-id="1934"></path><path d="M437.64992 658.45504c-23.63648-25.32352-73.95328-11.35872-147.49184 50.00448l-3.52 2.9568c-67.968 57.52832-90.33728 111.49056-63.872 134.67136 18.10688 15.8592 58.32192-1.65632 75.09248-0.22016 28.88192 2.47552 46.90944 54.36416 76.71808 55.19104 25.01632 0.69376 47.09376-8.12032 69.53472-26.08384 33.94816-27.17696 44.49536-44.16256 43.70176-61.48608l-0.11264-1.67936c-1.55904-17.91488-59.97056-52.74112-60.64384-79.9872-0.576-23.47008 28.8896-51.8528 11.46112-72.39424l-0.86784-0.9728z m19.6864-16.39936c19.89376 22.43072 10.89792 48.6144 5.7728 61.39904-1.47456 3.6736-3.09504 7.3344-4.44672 10.41152-1.42848 3.2512-2.61632 5.98016-3.61472 8.5632-1.83808 4.75392-2.30144 7.22688-2.38336 8.3328 0.16384 0.39168 0.95744 2.62144 4.32896 7.06304 4.28544 5.65248 10.42176 11.92448 17.82528 19.06176 6.76096 6.52288 15.29088 14.41024 21.69344 21.37856 3.29728 3.58656 6.81472 7.75168 9.69984 12.24192 2.49856 3.88864 5.824 9.98144 6.82496 17.54624l0.1664 1.53344c2.7264 31.28832-16.60928 55.61856-49.83552 82.73664l-3.25888 2.63424c-25.15456 20.13696-52.04992 31.8464-83.21536 31.73888l-3.02848-0.04864c-15.14496-0.41984-27.10528-7.34464-35.69408-14.15168-8.39936-6.65856-15.808-15.04768-21.47328-21.4528-6.336-7.16032-10.87232-12.27776-15.32928-16.0256-3.60448-3.02848-5.34528-3.55584-5.6704-3.63264a22.41536 22.41536 0 0 0-2.25536 0.16896c-1.84064 0.20992-4.16512 0.58368-7.16544 1.14176-5.312 0.98816-13.9008 2.81344-21.57312 3.9936-7.9616 1.22368-17.62304 2.23744-27.2896 1.34144-9.4208-0.87552-20.79232-3.7504-30.57664-11.88608l-0.94208-0.80384c-26.05312-22.81984-22.4512-56.8704-9.88672-84.35456 12.93824-28.29824 38.56384-59.04128 74.08896-89.11104l3.61984-3.03872c37.26336-31.10144 70.70208-52.1088 99.59424-61.77536 29.8752-9.9968 61.24544-9.44128 83.05408 13.9264l0.97024 1.06752z" fill="#000000" p-id="1935"></path><path d="M437.65248 658.45504c19.23584 20.61312-11.18208 49.52576-10.59584 73.36704 0.67328 27.24864 59.0848 62.07232 60.64384 79.9872 1.5616 17.91744-8.54784 35.1104-43.58912 63.16544-22.44096 17.96352-44.52096 26.7776-69.53728 26.08384-29.80608-0.82688-47.8336-52.71552-76.71552-55.18848-16.77056-1.43616-56.9856 16.0768-75.09504 0.21504-26.46272-23.17824-4.09344-77.13792 63.87456-134.6688 75.456-63.86944 127.0016-78.68672 151.0144-52.96128z" fill="#E6D7CC" p-id="1936"></path><path d="M406.16704 670.72c7.168 7.68-11.45344 29.93664-2.84672 63.97184 6.26432 24.768 63.44704 77.28128 66.31168 93.98016 2.86464 16.69888-4.99712 31.7952-34.7776 54.94016-19.072 14.81984-38.54592 21.20192-61.46816 18.55488-27.31264-3.15648-47.95136-52.608-74.54976-57.21344-15.44192-2.67264-58.29632 19.81184-76.11904 3.6864-26.048-23.56736-2.432-81.2032 55.0784-128.9728 63.84896-53.03552 104.3584-74.6752 128.3712-48.9472z" fill="#F8EEE7" p-id="1937"></path><path d="M456.78592 790.09536c15.92832-6.05184 36.74368-9.08032 50.26048 6.01856l0.64 0.73216 0.41216 0.51456a12.8 12.8 0 0 1-19.50464 16.52736l-0.44032-0.49408-0.41216-0.4352c-2.28608-2.176-8.1024-4.16-21.86496 1.06752-13.53728 5.14304-29.6832 15.66208-44.77184 28.64128-15.04768 12.94592-28.07296 27.50464-35.78112 39.94368-3.8912 6.27968-5.98016 11.30496-6.6816 14.8352-0.384 1.92512-0.26624 2.83392-0.18176 3.15392a12.79488 12.79488 0 0 1-19.4944 16.57856c-6.53824-7.54944-6.97856-16.9472-5.43232-24.72448 1.54112-7.74912 5.33504-15.75168 10.03008-23.32928 9.46944-15.27808 24.45824-31.76704 40.8448-45.86496 16.3456-14.05952 35.05408-26.5856 52.3776-33.1648z" fill="#000000" p-id="1938"></path><path d="M560.55808 481.69728c-89.95072 89.77408-87.84384 255.34464 11.88864 357.81632l2.37568 2.4064c102.0672 102.26688 264.69376 100.60288 355.3536 10.12224l1.87648-1.90208c78.3104-80.57344 81.96608-238.60992-16.87552-340.1856l-2.37568-2.4064c-101.26848-101.46816-259.09504-116.10624-350.1056-27.95264l-2.1376 2.10176z m-18.08384-18.11968c103.18848-102.98624 279.11168-83.66336 388.44672 25.88672 111.104 111.3216 109.02528 289.18784 17.33888 380.6976-101.18656 100.98688-280.03072 101.58848-391.55712-10.15808-110.89664-111.11424-116.01664-294.83776-14.22848-396.42624z" fill="#000000" p-id="1939"></path><path d="M560.55808 481.69728c90.65728-90.48064 250.176-76.41856 352.2432 25.85088 102.0672 102.26688 98.12736 263.8976 17.37216 344.49408-90.65728 90.48064-253.28384 92.1472-355.35104-10.12224-102.0672-102.26688-104.92416-269.74208-14.26432-360.22272z" fill="#E3C5AB" p-id="1940"></path><path d="M564.63104 480.18944c88.46592-88.29184 239.34208-79.36 333.30432 14.78656 93.9648 94.14912 85.76768 247.50848 6.96832 326.15168-88.46592 88.29184-242.72128 94.35904-336.68608 0.20992-93.96224-94.14656-92.04992-252.85888-3.58656-341.14816z" fill="#F6E1D0" p-id="1941"></path><path d="M847.08864 723.25632c-39.18592 5.3376-85.7728-2.46016-127.3856-33.62048l-2.11456-1.60512c-44.0192-33.84832-64-77.40672-68.87424-116.56192-2.45504-19.72992-1.1136-38.57152 3.06176-54.7456 3.904-15.1296 10.87744-30.10048 21.75488-40.59392l1.0624-1.00096c19.14624-17.54112 37.5168-21.2992 53.53984-21.57056a198.43584 198.43584 0 0 1 9.51552 0.12288c2.86208 0.08448 4.992 0.14592 7.03488 0.1152 3.3792-0.04864 5.49632-0.35328 7.18592-0.87808l0.70144-0.23808c2.0608-0.75776 5.83168-3.01568 11.42784-8.18432 5.3888-4.97408 10.94912-11.19232 16.9984-18.20928 5.62944-6.53568 12.19584-14.3872 18.24512-20.60288 5.02784-5.1712 13.61152-13.5296 24.48128-17.24672l1.05728-0.34816c30.22336-9.35168 58.32192 4.11904 92.18048 30.4256l3.29472 2.5856c25.23392 19.9936 42.55488 43.48416 49.16736 73.65376l0.60416 2.94144c2.5984 13.43488-0.18688 25.71264-3.91936 35.55584-3.64544 9.61792-8.94208 18.74944-13.16864 25.9712-4.63616 7.92576-8.16896 13.87264-10.67776 19.6224-2.13248 4.89216-2.73408 7.96928-2.77248 9.90976l0.01792 0.76288c0.03584 0.5376 0.28416 1.92256 1.88416 6.75584 1.32864 4.0192 3.65056 10.61632 5.08928 17.9712 3.2384 16.52992 1.98912 35.8016-10.78528 58.60352-15.26016 27.24352-51.26912 45.3248-88.60672 50.40896z m-111.67744-53.8624c71.31392 53.39904 158.23104 26.0608 177.7024-8.69888 19.47136-34.76224 1.72032-52.7616 0.64-69.40672-1.93024-29.76512 36.5312-59.6864 30.92224-88.69888-4.70784-24.35328-18.14784-43.82208-40.6784-61.67296-34.0864-27.008-53.09184-33.56416-69.98272-29.07648l-1.62816 0.46848c-17.04192 5.2736-42.90048 52.62336-69.62688 63.64928l-1.27488 0.49664c-22.1952 8.17408-41.89184-6.90944-68.11136 16.08448l-1.2544 1.12384c-25.78944 23.63136-35.7248 115.00544 41.45152 174.336l1.84064 1.3952z" fill="#000000" p-id="1942"></path><path d="M692.11904 493.66016c26.84928-24.6016 46.81728-8.90112 69.36576-17.20576 27.17952-10.00704 53.59104-58.78784 70.90176-64.14592 17.31072-5.35808 36.42624 0.7296 71.61088 28.608 22.53056 17.85088 35.97056 37.31968 40.6784 61.6704 5.60896 29.01504-32.85248 58.93632-30.92224 88.70144 1.08032 16.64512 18.83392 34.64448-0.63744 69.40672-19.47136 34.75968-106.39104 62.10048-177.70496 8.69888-79.17312-59.28448-69.28384-151.91552-43.29216-175.73376z" fill="#E6D7CC" p-id="1943"></path><path d="M693.76 491.83744c26.26304-24.9984 48.87552-7.9616 70.4-16.95744 25.9456-10.84416 50.07872-55.52128 66.56-61.44 16.48128-5.91872 30.67648-5.4144 62.51008 20.1984 20.38528 16.40192 32.16896 34.74688 35.54304 58.19904 4.0192 27.93984-33.37472 58.5856-32.83968 87.40608 0.29952 16.11776 16.19456 32.86016-3.57888 67.4176-19.77088 34.56-102.54336 64.70144-167.19872 15.80032C664.32 616.45312 661.82144 522.24 693.76 491.83744z" fill="#F8EEE7" p-id="1944"></path><path d="M828.2624 436.928c-4.87424-6.60736-9.01376-13.86496-10.85184-21.27872-1.90464-7.6928-1.48736-16.54016 4.37248-24.09472 4.3136-5.56032 12.38528-6.57152 18.03008-2.26048 5.64224 4.31104 6.72256 12.3136 2.40896 17.87392-0.03584 0.04352-0.05888 0.05376-0.08448 0.24064-0.04096 0.27136-0.07936 1.00096 0.25344 2.33728 0.70144 2.83904 2.71104 6.976 6.6048 12.25472 7.71072 10.4576 20.59264 22.44608 35.26656 33.28512 14.62784 10.80576 30.10816 19.78624 42.48576 24.67328 6.27968 2.47808 10.97728 3.58912 13.98272 3.75552 0.52224 0.02816 0.9216 0.02304 1.216 0.01024 4.44416-4.38016 11.59936-4.95104 16.78848-1.0752 5.51424 4.11904 6.78144 11.74528 2.99008 17.31584l-0.384 0.52992-0.5632 0.71424c-5.93664 7.17312-14.83008 8.29952-21.30176 7.94112-6.98368-0.38912-14.64832-2.59072-22.10304-5.53472-15.08352-5.95456-32.55296-16.24832-48.39424-27.95008-15.7952-11.66848-30.8992-25.42336-40.7168-38.73792zM246.29248 810.25024l1.72544 0.09216c31.41376 2.02752 52.39552 23.11936 65.79968 37.80608l5.37856 5.92128 0.43264 0.49664a12.8 12.8 0 0 1-18.84672 17.27488l-0.45824-0.47104-5.68576-6.20288c-13.16864-14.22336-27.50208-27.94752-48.27136-29.27616l-1.1392-0.06144-0.65792-0.04352a12.80256 12.80256 0 0 1 1.06496-25.54624l0.65792 0.01024zM395.52 680.96a12.8 12.8 0 0 1 25.6 0c0 9.09568 5.16096 19.36896 13.15584 30.12864 3.84256 5.17376 7.95904 9.9712 11.80672 14.41792 3.1104 3.5968 6.53824 7.50848 9.0112 10.92352l0.99584 1.43104 0.35328 0.55552a12.8 12.8 0 0 1-21.2736 14.1824l-0.37888-0.54016-0.56832-0.80896c-1.46176-2.00448-3.89632-4.82304-7.50336-8.9984-3.83232-4.4288-8.51968-9.87392-12.99456-15.90016-8.64512-11.64032-18.20416-27.60704-18.20416-45.39136zM922.2528 562.39616a12.8 12.8 0 0 1 19.59424 16.46336l-5.02272 6.208c-11.94496 14.72-24.69888 31.31904-22.26432 54.80704a12.8 12.8 0 0 1-25.46688 2.6368c-4.0832-39.4112 22.0288-66.17856 32.73728-79.61088l0.4224-0.50432z m-164.68992-111.56992a12.8 12.8 0 0 1 20.87168 14.82496c-9.88672 13.92384-25.6384 39.90784-63.52896 49.77664a12.8 12.8 0 1 1-6.45376-24.77568c27.6992-7.21408 38.62528-25.0624 49.11104-39.82592z" fill="#000000" p-id="1945"></path><path d="M381.44 907.52c-25.6-28.16 76.8-111.36 106.24-94.72 5.12 30.72-46.08 97.28-106.24 94.72zM842.24 409.6c25.6-2.56 92.15744 48.64 97.28 74.24256C916.47744 480 855.04 442.88 842.24 409.6z" fill="#E3C5AB" p-id="1946"></path></svg>