<?xml version="1.0" encoding="UTF-8"?>
<svg id="mx_1" data-name="mx_1" xmlns="http://www.w3.org/2000/svg" version="1.1" viewBox="0 0 114.13 90.4">
  <!-- Generator: Adobe Illustrator 29.5.1, SVG Export Plug-In . SVG Version: 2.1.0 Build 141)  -->
  <defs>
    <style>
      .st0 {
        fill: #1296db;
      }
    </style>
  </defs>
  <rect class="st0" x="90.7" y="21.74" width="23.43" height="21.12"/>
  <g>
    <path class="st0" d="M90.08,8.83c.29,5.16-3.65,9.59-8.81,9.89-5.17.29-9.59-3.65-9.89-8.81-.3-5.16,3.65-9.59,8.81-9.88,5.16-.3,9.59,3.65,9.88,8.81Z"/>
    <path class="st0" d="M48.72,25.02S1.35,83.14,1.35,83.14c-1.56,1.61-1.93,4.46-.26,6.11,1.67,1.65,4.75,1.48,6.31-.14l15.82-14.48s33.42-1.97,36.29-2.13c2.87-.17,6.57-4.42,4.54-8.33l-7.48-18.42,7.54-7.39s.52,5.1.67,6.55c.15,1.46,1.42,2.89,4.14,3.42l18.95,3.58c1.94.57,3.91-.58,4.41-2.58.5-2-.67-4.07-2.61-4.64l-15.4-5.13s.11-7.45,0-11.31c-.16-5.63-1.92-9.48-3.79-10.91-3.41-2.86-11.11-5.94-17.6,2.64l-4.18,5.06ZM46.47,63.55l-12.71,1.6,10.91-9.85,2.43,5.56c.91,1.52.63,2.62-.63,2.7Z"/>
  </g>
</svg>