<?xml version="1.0" standalone="no"?><!DOCTYPE svg PUBLIC "-//W3C//DTD SVG 1.1//EN" "http://www.w3.org/Graphics/SVG/1.1/DTD/svg11.dtd"><svg t="1747137345249" class="icon" viewBox="0 0 1024 1024" version="1.1" xmlns="http://www.w3.org/2000/svg" p-id="3893" width="32" height="32" xmlns:xlink="http://www.w3.org/1999/xlink"><path d="M1005.206 351.311c10.75-16.126 7.165-37.628-7.168-50.169-16.126-12.544-37.628-8.958-50.169 7.168-1.793 1.793-200.674 236.511-437.187 236.511-229.342 0-437.187-236.511-438.981-238.3-12.544-14.333-35.835-16.126-50.169-3.586-14.333 12.544-16.126 35.835-3.586 50.172 3.586 5.372 46.586 53.751 114.674 107.506l-91.383 94.962c-14.333 14.333-12.54 37.628 1.793 50.169 3.586 7.168 12.544 10.754 21.502 10.754s17.916-3.586 25.084-10.754l98.547-102.126c46.586 32.252 102.13 62.713 163.049 84.21l-37.628 127.214c-5.372 19.709 5.376 39.417 25.084 44.793h10.747c16.126 0 30.459-10.75 34.046-26.873l37.628-127.218c28.667 5.376 59.129 8.962 89.586 8.962 30.459 0 60.919-3.586 89.589-8.962l37.628 125.424c3.582 16.123 19.709 26.877 34.042 26.877 3.586 0 7.165 0 8.962-1.793 19.709-5.379 30.456-25.084 25.084-44.796l-37.628-125.421c60.919-21.502 116.466-51.961 163.049-84.214l96.754 100.336c7.168 7.168 16.126 10.754 25.084 10.754s17.92-3.586 25.084-10.75c14.333-14.333 14.333-35.835 1.793-50.169l-91.378-94.962c73.466-53.758 116.469-105.719 116.469-105.719z" fill="#cdcdcd" p-id="3894"></path></svg>