<?xml version="1.0" encoding="UTF-8"?>
<svg id="_图层_1" data-name="图层_1" xmlns="http://www.w3.org/2000/svg" version="1.1" xmlns:xlink="http://www.w3.org/1999/xlink" viewBox="0 0 52 52">
  <!-- Generator: Adobe Illustrator 29.5.1, SVG Export Plug-In . SVG Version: 2.1.0 Build 141)  -->
  <defs>
    <style>
      .st0 {
        stroke: #cdcdcd;
        stroke-width: 3.5px;
      }

      .st0, .st1 {
        fill: none;
      }

      .st2 {
        fill: #fff;
      }

      .st3 {
        mask: url(#mask);
      }

      .st4 {
        fill: #cdcdcd;
      }

      .st5 {
        clip-path: url(#clippath);
      }
    </style>
    <mask id="mask" x="-1" y="1" width="54" height="54" maskUnits="userSpaceOnUse">
      <g id="a">
        <path class="st2" d="M-1,1h54v54H-1V1Z"/>
        <path d="M28,5V1h-4v4M25.5,22v4h1v-4"/>
        <circle cx="26" cy="13" r="10.5"/>
        <g>
          <path d="M44.92,41.23l3.46,2,2-3.46-3.46-2M31.45,30.57l-3.46-2-.5.87,3.46,2"/>
          <circle cx="38.99" cy="35.5" r="10.5"/>
        </g>
        <g>
          <path d="M5.08,37.77l-3.46,2,2,3.46,3.46-2M21.05,31.43l3.46-2-.5-.87-3.46,2"/>
          <circle cx="13.01" cy="35.5" r="10.5"/>
        </g>
        <circle cx="26" cy="28" r="3"/>
      </g>
    </mask>
    <clipPath id="clippath">
      <path class="st1" d="M16.5,13c0,5.25,4.25,9.5,9.5,9.5h0c5.25,0,9.5-4.25,9.5-9.5h0c0-5.25-4.25-9.5-9.5-9.5h0c-5.25,0-9.5,4.25-9.5,9.5ZM30.76,30.75c-2.62,4.54-1.07,10.35,3.48,12.98h0c4.54,2.62,10.35,1.07,12.98-3.48h0c2.62-4.54,1.07-10.35-3.48-12.98h0c-1.5-.86-3.13-1.27-4.74-1.27h0c-3.28,0-6.48,1.7-8.24,4.75ZM8.26,27.27c-4.54,2.62-6.1,8.43-3.48,12.98h0c2.62,4.54,8.43,6.1,12.98,3.48h0c4.54-2.62,6.1-8.43,3.48-12.98h0c-1.76-3.05-4.95-4.75-8.24-4.75h0c-1.61,0-3.25.41-4.74,1.27Z"/>
    </clipPath>
  </defs>
  <g class="st3">
    <g>
      <circle class="st4" cx="26" cy="17" r="15"/>
      <circle class="st4" cx="35.53" cy="33.5" r="15"/>
      <circle class="st4" cx="16.47" cy="33.5" r="15"/>
    </g>
  </g>
  <g class="st5">
    <circle class="st0" cx="26" cy="28" r="11.75"/>
  </g>
</svg>